ply
format ascii 1.0
element vertex 1048
property float x
property float y
property float z
element face 0
property list uchar int vertex_index
end_header
0.00467491 0.00536013 -5.96046e-05
2.00467 0.00536013 -5.96046e-05
0.00467491 2.00536 -5.96046e-05
2.00467 2.00536 -5.96046e-05
0.00467491 1.00536 -5.96046e-05
1.00467 0.00536013 -5.96046e-05
2.00467 1.00536 -5.96046e-05
1.00467 2.00536 -5.96046e-05
1.00467 1.00536 -5.96046e-05
0.00467491 0.50536 -5.96046e-05
1.50467 0.00536013 -5.96046e-05
2.00467 1.50536 -5.96046e-05
0.504675 2.00536 -5.96046e-05
0.00467491 1.50536 -5.96046e-05
0.504675 0.00536013 -5.96046e-05
2.00467 0.50536 -5.96046e-05
1.50467 2.00536 -5.96046e-05
0.991834 1.50536 0.22793
1.00467 0.50536 -5.96046e-05
0.504675 1.00536 -5.96046e-05
1.50467 1.00536 -5.96046e-05
1.50467 0.50536 -5.96046e-05
0.504675 0.50536 -5.96046e-05
1.50467 1.50536 -5.96046e-05
0.00467491 0.25536 -5.96046e-05
1.75467 0.00536013 -5.96046e-05
2.00467 1.75536 -5.96046e-05
0.254675 2.00536 -5.96046e-05
0.00467491 1.25536 -5.96046e-05
0.754675 0.00536013 -5.96046e-05
2.00467 0.75536 -5.96046e-05
1.25467 2.00536 -5.96046e-05
0.991834 1.75536 0.22793
0.991834 0.75536 0.22793
0.241834 1.00536 0.175004
1.25467 1.00536 -5.96046e-05
0.00467491 0.75536 -5.96046e-05
1.25467 0.00536013 -5.96046e-05
2.00467 1.25536 -5.96046e-05
0.754675 2.00536 -5.96046e-05
0.00467491 1.75536 -5.96046e-05
0.254675 0.00536013 -5.96046e-05
2.00467 0.25536 -5.96046e-05
1.75467 2.00536 -5.96046e-05
0.991834 1.25536 0.22793
0.991834 0.25536 0.175004
0.741834 1.00536 0.22793
1.74183 1.00536 0.22793
1.49183 0.75536 0.22793
1.49183 0.25536 0.175004
1.25467 0.50536 -5.96046e-05
1.75467 0.50536 -5.96046e-05
0.504675 0.75536 -5.96046e-05
0.491834 0.25536 0.192865
0.241834 0.50536 0.175004
0.754675 0.50536 -5.96046e-05
0.504675 1.25536 -5.96046e-05
0.241834 1.50536 0.175004
0.741834 1.50536 0.22793
1.49183 1.75536 0.22793
1.49183 1.25536 0.22793
1.25467 1.50536 -5.96046e-05
1.74183 1.50536 0.22793
1.75467 1.25536 -5.96046e-05
1.24183 1.25536 0.22793
1.24183 1.75536 0.22793
0.754675 1.25536 -5.96046e-05
0.241834 1.25536 0.175004
0.241834 1.75536 0.22793
0.741834 0.25536 0.175004
0.241834 0.25536 0.22793
0.241834 0.75536 0.175004
1.74183 0.25536 0.175004
1.24183 0.25536 0.175004
1.24183 0.75536 0.22793
1.74183 0.75536 0.22793
0.741834 0.75536 0.22793
0.754675 1.75536 -5.96046e-05
1.75467 1.75536 -5.96046e-05
0.00467491 0.13036 -5.96046e-05
1.87967 0.00536013 -5.96046e-05
2.00467 1.88036 -5.96046e-05
0.129675 2.00536 -5.96046e-05
0.00467491 1.13036 -5.96046e-05
0.879675 0.00536013 -5.96046e-05
2.00467 0.88036 -5.96046e-05
1.12967 2.00536 -5.96046e-05
1.00467 1.88036 -5.96046e-05
1.00467 0.88036 -5.96046e-05
0.116834 1.00536 0.22793
1.12967 1.00536 -5.96046e-05
0.00467491 0.63036 -5.96046e-05
1.37967 0.00536013 -5.96046e-05
2.00467 1.38036 -5.96046e-05
0.629675 2.00536 -5.96046e-05
0.00467491 1.63036 -5.96046e-05
0.379675 0.00536013 -5.96046e-05
2.00467 0.38036 -5.96046e-05
1.62967 2.00536 -5.96046e-05
0.991834 1.38036 0.22793
0.991834 0.38036 0.175004
0.629675 1.00536 -5.96046e-05
1.61683 1.00536 0.22793
1.50467 0.88036 -5.96046e-05
1.49183 0.38036 0.175004
1.12967 0.50536 -5.96046e-05
1.62967 0.50536 -5.96046e-05
0.504675 0.88036 -5.96046e-05
0.491834 0.38036 0.175004
0.116834 0.50536 0.22793
0.629675 0.50536 -5.96046e-05
0.504675 1.88036 -5.96046e-05
0.116834 1.50536 0.22793
1.50467 1.88036 -5.96046e-05
1.50467 1.38036 -5.96046e-05
1.12967 1.50536 -5.96046e-05
1.62967 1.50536 -5.96046e-05
0.00467491 0.38036 -5.96046e-05
1.62967 0.00536013 -5.96046e-05
2.00467 1.63036 -5.96046e-05
0.379675 2.00536 -5.96046e-05
0.00467491 1.38036 -5.96046e-05
0.629675 0.00536013 -5.96046e-05
2.00467 0.63036 -5.96046e-05
1.37967 2.00536 -5.96046e-05
0.991834 1.63036 0.22793
0.991834 0.63036 0.22793
0.366834 1.00536 0.22793
1.37967 1.00536 -5.96046e-05
0.00467491 0.88036 -5.96046e-05
1.12967 0.00536013 -5.96046e-05
2.00467 1.13036 -5.96046e-05
0.879675 2.00536 -5.96046e-05
0.00467491 1.88036 -5.96046e-05
0.129675 0.00536013 -5.96046e-05
2.00467 0.13036 -5.96046e-05
1.87967 2.00536 -5.96046e-05
1.00467 1.13036 -5.96046e-05
1.00467 0.13036 -5.96046e-05
0.866834 1.00536 0.22793
1.87967 1.00536 -5.96046e-05
1.49183 0.63036 0.22793
1.50467 0.13036 -5.96046e-05
1.37967 0.50536 -5.96046e-05
0.504675 0.63036 -5.96046e-05
0.504675 0.13036 -5.96046e-05
0.366834 0.50536 0.22793
0.879675 0.50536 -5.96046e-05
0.504675 1.13036 -5.96046e-05
0.366834 1.50536 0.22793
0.866834 1.50536 0.22793
1.49183 1.63036 0.22793
1.49183 1.13036 0.22793
1.37967 1.50536 -5.96046e-05
1.87967 1.50536 -5.96046e-05
1.75467 1.38036 -5.96046e-05
1.74183 1.13036 0.22793
1.61683 1.25536 0.22793
1.24183 1.38036 0.22793
1.25467 1.13036 -5.96046e-05
1.11683 1.25536 0.22793
1.36683 1.25536 0.22793
1.25467 1.88036 -5.96046e-05
1.24183 1.63036 0.22793
1.11683 1.75536 0.22793
1.36683 1.75536 0.22793
0.754675 1.38036 -5.96046e-05
0.754675 1.13036 -5.96046e-05
0.629675 1.25536 -5.96046e-05
0.879675 1.25536 -5.96046e-05
0.241834 1.38036 0.175004
0.241834 1.13036 0.175004
0.116834 1.25536 0.22793
0.366834 1.25536 0.22793
0.241834 1.88036 0.22793
0.241834 1.63036 0.22793
0.116834 1.75536 0.22793
0.379675 1.75536 -5.96046e-05
0.741834 0.38036 0.22793
0.754675 0.13036 -5.96046e-05
0.616834 0.25536 0.175004
0.866834 0.25536 0.175004
0.241834 0.38036 0.175004
0.254675 0.13036 -5.96046e-05
0.129675 0.25536 -5.96046e-05
0.366834 0.25536 0.22793
0.241834 0.88036 0.175004
0.241834 0.63036 0.175004
0.116834 0.75536 0.22793
0.366834 0.75536 0.22793
1.74183 0.38036 0.22793
1.75467 0.13036 -5.96046e-05
1.61683 0.25536 0.175004
1.87967 0.25536 -5.96046e-05
1.24183 0.38036 0.175004
1.25467 0.13036 -5.96046e-05
1.11683 0.25536 0.175004
1.36683 0.25536 0.175004
1.25467 0.88036 -5.96046e-05
1.24183 0.63036 0.22793
1.11683 0.75536 0.22793
1.36683 0.75536 0.22793
1.74183 0.88036 0.22793
1.75467 0.63036 -5.96046e-05
1.61683 0.75536 0.22793
1.87967 0.75536 -5.96046e-05
0.741834 0.88036 0.22793
0.741834 0.63036 0.22793
0.616834 0.75536 0.22793
0.866834 0.75536 0.22793
0.754675 1.88036 -5.96046e-05
0.741834 1.63036 0.22793
0.629675 1.75536 -5.96046e-05
0.866834 1.75536 0.22793
1.75467 1.88036 -5.96046e-05
1.74183 1.63036 0.22793
1.61683 1.75536 0.22793
1.87967 1.75536 -5.96046e-05
1.87967 1.63036 -5.96046e-05
1.61683 1.63036 0.22793
1.62967 1.88036 -5.96046e-05
0.866834 1.63036 0.22793
0.629675 1.88036 -5.96046e-05
0.866834 0.63036 0.22793
0.629675 0.63036 -5.96046e-05
0.616834 0.88036 0.22793
1.87967 0.63036 -5.96046e-05
1.61683 0.63036 0.22793
1.61683 0.88036 0.22793
1.36683 0.63036 0.22793
1.11683 0.63036 0.22793
1.12967 0.88036 -5.96046e-05
1.37967 0.13036 -5.96046e-05
1.12967 0.13036 -5.96046e-05
1.11683 0.38036 0.175004
1.87967 0.13036 -5.96046e-05
1.62967 0.13036 -5.96046e-05
1.61683 0.38036 0.22793
0.366834 0.63036 0.22793
0.116834 0.63036 0.22793
0.116834 0.88036 0.22793
0.379675 0.13036 -5.96046e-05
0.129675 0.13036 -5.96046e-05
0.116834 0.38036 0.22793
0.879675 0.13036 -5.96046e-05
0.629675 0.13036 -5.96046e-05
0.616834 0.38036 0.175004
0.366834 1.63036 0.22793
0.116834 1.63036 0.22793
0.129675 1.88036 -5.96046e-05
0.366834 1.13036 0.22793
0.116834 1.13036 0.22793
0.116834 1.38036 0.22793
0.879675 1.13036 -5.96046e-05
0.629675 1.13036 -5.96046e-05
0.629675 1.38036 -5.96046e-05
1.36683 1.63036 0.22793
1.12967 1.63036 -5.96046e-05
1.12967 1.88036 -5.96046e-05
1.36683 1.13036 0.22793
1.12967 1.13036 -5.96046e-05
1.11683 1.38036 0.22793
1.87967 1.13036 -5.96046e-05
1.61683 1.13036 0.22793
1.62967 1.38036 -5.96046e-05
1.36683 1.38036 0.22793
1.37967 1.88036 -5.96046e-05
0.866834 1.38036 0.22793
0.366834 1.38036 0.22793
0.379675 1.88036 -5.96046e-05
0.866834 0.38036 0.22793
0.366834 0.38036 0.175004
0.366834 0.88036 0.22793
1.87967 0.38036 -5.96046e-05
1.36683 0.38036 0.175004
1.37967 0.88036 -5.96046e-05
1.87967 0.88036 -5.96046e-05
0.866834 0.88036 0.22793
0.879675 1.88036 -5.96046e-05
0.00467491 0.0678601 -5.96046e-05
1.94217 0.00536013 -5.96046e-05
2.00467 1.94286 -5.96046e-05
0.0671749 2.00536 -5.96046e-05
0.00467491 1.06786 -5.96046e-05
0.942175 0.00536013 -5.96046e-05
2.00467 0.94286 -5.96046e-05
1.06717 2.00536 -5.96046e-05
1.00467 1.94286 -5.96046e-05
1.00467 0.94286 -5.96046e-05
0.0671749 1.00536 -5.96046e-05
1.06717 1.00536 -5.96046e-05
0.00467491 0.56786 -5.96046e-05
1.44217 0.00536013 -5.96046e-05
2.00467 1.44286 -5.96046e-05
0.567175 2.00536 -5.96046e-05
0.00467491 1.56786 -5.96046e-05
0.442175 0.00536013 -5.96046e-05
2.00467 0.44286 -5.96046e-05
1.56717 2.00536 -5.96046e-05
0.991834 1.44286 0.22793
1.00467 0.44286 -5.96046e-05
0.567175 1.00536 -5.96046e-05
1.56717 1.00536 -5.96046e-05
1.50467 0.94286 -5.96046e-05
1.50467 0.44286 -5.96046e-05
1.06717 0.50536 -5.96046e-05
1.56717 0.50536 -5.96046e-05
0.504675 0.94286 -5.96046e-05
0.504675 0.44286 -5.96046e-05
0.0671749 0.50536 -5.96046e-05
0.567175 0.50536 -5.96046e-05
0.504675 1.94286 -5.96046e-05
0.504675 1.44286 -5.96046e-05
0.0671749 1.50536 -5.96046e-05
1.50467 1.94286 -5.96046e-05
1.50467 1.44286 -5.96046e-05
1.06717 1.50536 -5.96046e-05
1.56717 1.50536 -5.96046e-05
0.00467491 0.31786 -5.96046e-05
1.69217 0.00536013 -5.96046e-05
2.00467 1.69286 -5.96046e-05
0.317175 2.00536 -5.96046e-05
0.00467491 1.31786 -5.96046e-05
0.692175 0.00536013 -5.96046e-05
2.00467 0.69286 -5.96046e-05
1.31717 2.00536 -5.96046e-05
0.991834 1.69286 0.22793
0.991834 0.69286 0.22793
0.304334 1.00536 0.175004
1.31717 1.00536 -5.96046e-05
0.00467491 0.81786 -5.96046e-05
1.19217 0.00536013 -5.96046e-05
2.00467 1.19286 -5.96046e-05
0.817175 2.00536 -5.96046e-05
0.00467491 1.81786 -5.96046e-05
0.192175 0.00536013 -5.96046e-05
2.00467 0.19286 -5.96046e-05
1.81717 2.00536 -5.96046e-05
1.00467 1.19286 -5.96046e-05
0.991834 0.19286 0.22793
0.804334 1.00536 0.22793
1.80433 1.00536 0.22793
1.49183 0.69286 0.22793
1.49183 0.19286 0.22793
1.31717 0.50536 -5.96046e-05
1.81717 0.50536 -5.96046e-05
0.504675 0.69286 -5.96046e-05
0.491834 0.19286 0.22793
0.304334 0.50536 0.175004
0.817175 0.50536 -5.96046e-05
0.504675 1.69286 -5.96046e-05
0.304334 1.50536 0.175004
0.804334 1.50536 0.22793
1.49183 1.69286 0.22793
1.49183 1.19286 0.22793
1.31717 1.50536 -5.96046e-05
1.81717 1.50536 -5.96046e-05
1.75467 1.44286 -5.96046e-05
1.75467 1.19286 -5.96046e-05
1.55433 1.25536 0.22793
1.81717 1.25536 -5.96046e-05
1.25467 1.44286 -5.96046e-05
1.24183 1.19286 0.22793
1.05433 1.25536 0.22793
1.30433 1.25536 0.22793
1.25467 1.94286 -5.96046e-05
1.24183 1.69286 0.22793
1.05433 1.75536 0.22793
1.30433 1.75536 0.22793
0.741834 1.44286 0.22793
0.754675 1.19286 -5.96046e-05
0.817175 1.25536 -5.96046e-05
0.241834 1.44286 0.175004
0.241834 1.19286 0.175004
0.0671749 1.25536 -5.96046e-05
0.304334 1.25536 0.175004
0.254675 1.94286 -5.96046e-05
0.241834 1.69286 0.22793
0.0671749 1.75536 -5.96046e-05
0.304334 1.75536 0.22793
0.754675 0.44286 -5.96046e-05
0.741834 0.19286 0.22793
0.554334 0.25536 0.175004
0.804334 0.25536 0.175004
0.241834 0.44286 0.175004
0.241834 0.19286 0.22793
0.0671749 0.25536 -5.96046e-05
0.304334 0.25536 0.22793
0.241834 0.94286 0.175004
0.241834 0.69286 0.175004
0.0671749 0.75536 -5.96046e-05
0.304334 0.75536 0.175004
1.75467 0.44286 -5.96046e-05
1.74183 0.19286 0.22793
1.55433 0.25536 0.175004
1.80433 0.25536 0.22793
1.25467 0.44286 -5.96046e-05
1.24183 0.19286 0.22793
1.05433 0.25536 0.175004
1.30433 0.25536 0.181778
1.25467 0.94286 -5.96046e-05
1.24183 0.69286 0.22793
1.05433 0.75536 0.22793
1.30433 0.75536 0.22793
1.74183 0.94286 0.22793
1.74183 0.69286 0.22793
1.55433 0.75536 0.22793
1.80433 0.75536 0.22793
0.741834 0.94286 0.22793
0.741834 0.69286 0.22793
0.567175 0.75536 -5.96046e-05
0.754675 1.94286 -5.96046e-05
0.741834 1.69286 0.22793
0.804334 1.75536 0.22793
1.75467 1.94286 -5.96046e-05
1.74183 1.69286 0.22793
1.55433 1.75536 0.22793
1.81717 1.75536 -5.96046e-05
0.00467491 0.19286 -5.96046e-05
1.81717 0.00536013 -5.96046e-05
2.00467 1.81786 -5.96046e-05
0.192175 2.00536 -5.96046e-05
0.00467491 1.19286 -5.96046e-05
0.817175 0.00536013 -5.96046e-05
2.00467 0.81786 -5.96046e-05
1.19217 2.00536 -5.96046e-05
0.991834 1.81786 0.22793
0.991834 0.81786 0.22793
0.179334 1.00536 0.175004
1.19217 1.00536 -5.96046e-05
0.00467491 0.69286 -5.96046e-05
1.31717 0.00536013 -5.96046e-05
2.00467 1.31786 -5.96046e-05
0.692175 2.00536 -5.96046e-05
0.00467491 1.69286 -5.96046e-05
0.317175 0.00536013 -5.96046e-05
2.00467 0.31786 -5.96046e-05
1.69217 2.00536 -5.96046e-05
0.991834 1.31786 0.22793
0.991834 0.31786 0.175004
0.679334 1.00536 0.22793
1.67933 1.00536 0.22793
1.49183 0.81786 0.22793
1.49183 0.31786 0.175004
1.19217 0.50536 -5.96046e-05
1.69217 0.50536 -5.96046e-05
0.504675 0.81786 -5.96046e-05
0.491834 0.31786 0.175004
0.179334 0.50536 0.175004
0.692175 0.50536 -5.96046e-05
0.504675 1.81786 -5.96046e-05
0.504675 1.31786 -5.96046e-05
0.179334 1.50536 0.175004
0.692175 1.50536 -5.96046e-05
1.50467 1.81786 -5.96046e-05
1.49183 1.31786 0.22793
1.19217 1.50536 -5.96046e-05
1.67933 1.50536 0.22793
0.00467491 0.44286 -5.96046e-05
1.56717 0.00536013 -5.96046e-05
2.00467 1.56786 -5.96046e-05
0.442175 2.00536 -5.96046e-05
0.00467491 1.44286 -5.96046e-05
0.567175 0.00536013 -5.96046e-05
2.00467 0.56786 -5.96046e-05
1.44217 2.00536 -5.96046e-05
1.00467 1.56786 -5.96046e-05
1.00467 0.56786 -5.96046e-05
0.442175 1.00536 -5.96046e-05
1.44217 1.00536 -5.96046e-05
0.00467491 0.94286 -5.96046e-05
1.06717 0.00536013 -5.96046e-05
2.00467 1.06786 -5.96046e-05
0.942175 2.00536 -5.96046e-05
0.00467491 1.94286 -5.96046e-05
0.0671749 0.00536013 -5.96046e-05
2.00467 0.0678601 -5.96046e-05
1.94217 2.00536 -5.96046e-05
1.00467 1.06786 -5.96046e-05
1.00467 0.0678601 -5.96046e-05
0.942175 1.00536 -5.96046e-05
1.94217 1.00536 -5.96046e-05
1.50467 0.56786 -5.96046e-05
1.50467 0.0678601 -5.96046e-05
1.44217 0.50536 -5.96046e-05
1.94217 0.50536 -5.96046e-05
0.504675 0.56786 -5.96046e-05
0.504675 0.0678601 -5.96046e-05
0.429334 0.50536 0.22793
0.942175 0.50536 -5.96046e-05
0.504675 1.56786 -5.96046e-05
0.504675 1.06786 -5.96046e-05
0.442175 1.50536 -5.96046e-05
0.929334 1.50536 0.22793
1.49183 1.56786 0.22793
1.50467 1.06786 -5.96046e-05
1.44217 1.50536 -5.96046e-05
1.94217 1.50536 -5.96046e-05
1.75467 1.31786 -5.96046e-05
1.74183 1.06786 0.22793
1.67933 1.25536 0.22793
1.94217 1.25536 -5.96046e-05
1.24183 1.31786 0.22793
1.25467 1.06786 -5.96046e-05
1.17933 1.25536 0.22793
1.42933 1.25536 0.22793
1.24183 1.81786 0.22793
1.25467 1.56786 -5.96046e-05
1.17933 1.75536 0.22793
1.42933 1.75536 0.22793
0.754675 1.31786 -5.96046e-05
0.754675 1.06786 -5.96046e-05
0.692175 1.25536 -5.96046e-05
0.929334 1.25536 0.22793
0.241834 1.31786 0.175004
0.241834 1.06786 0.175004
0.179334 1.25536 0.175004
0.442175 1.25536 -5.96046e-05
0.241834 1.81786 0.22793
0.241834 1.56786 0.175004
0.179334 1.75536 0.22793
0.442175 1.75536 -5.96046e-05
0.741834 0.31786 0.175004
0.754675 0.0678601 -5.96046e-05
0.679334 0.25536 0.175004
0.929334 0.25536 0.175004
0.241834 0.31786 0.175004
0.254675 0.0678601 -5.96046e-05
0.179334 0.25536 0.22793
0.429334 0.25536 0.175004
0.241834 0.81786 0.175004
0.241834 0.56786 0.175004
0.179334 0.75536 0.175004
0.442175 0.75536 -5.96046e-05
1.74183 0.31786 0.175004
1.75467 0.0678601 -5.96046e-05
1.67933 0.25536 0.175004
1.94217 0.25536 -5.96046e-05
1.24183 0.31786 0.175004
1.25467 0.0678601 -5.96046e-05
1.17933 0.25536 0.175004
1.42933 0.25536 0.175004
1.24183 0.81786 0.22793
1.25467 0.56786 -5.96046e-05
1.17933 0.75536 0.22793
1.42933 0.75536 0.22793
1.74183 0.81786 0.22793
1.75467 0.56786 -5.96046e-05
1.67933 0.75536 0.22793
1.94217 0.75536 -5.96046e-05
0.754675 0.56786 -5.96046e-05
0.679334 0.75536 0.22793
0.929334 0.75536 0.22793
0.754675 1.81786 -5.96046e-05
0.741834 1.56786 0.22793
0.692175 1.75536 -5.96046e-05
0.929334 1.75536 0.22793
1.75467 1.81786 -5.96046e-05
1.74183 1.56786 0.22793
1.67933 1.75536 0.22793
1.94217 1.75536 -5.96046e-05
1.87967 1.69286 -5.96046e-05
1.87967 1.56786 -5.96046e-05
1.80433 1.63036 0.22793
1.94217 1.63036 -5.96046e-05
1.61683 1.69286 0.22793
1.61683 1.56786 0.22793
1.55433 1.63036 0.22793
1.67933 1.63036 0.22793
1.62967 1.94286 -5.96046e-05
1.62967 1.81786 -5.96046e-05
1.56717 1.88036 -5.96046e-05
1.69217 1.88036 -5.96046e-05
0.866834 1.69286 0.22793
0.866834 1.56786 0.22793
0.804334 1.63036 0.22793
0.929334 1.63036 0.22793
0.629675 1.69286 -5.96046e-05
0.629675 1.56786 -5.96046e-05
0.692175 1.63036 -5.96046e-05
0.629675 1.94286 -5.96046e-05
0.692175 1.88036 -5.96046e-05
0.866834 0.69286 0.22793
0.879675 0.56786 -5.96046e-05
0.804334 0.63036 0.22793
0.929334 0.63036 0.22793
0.629675 0.69286 -5.96046e-05
0.629675 0.56786 -5.96046e-05
0.567175 0.63036 -5.96046e-05
0.692175 0.63036 -5.96046e-05
0.616834 0.94286 0.22793
0.616834 0.81786 0.22793
0.567175 0.88036 -5.96046e-05
0.679334 0.88036 0.22793
1.87967 0.69286 -5.96046e-05
1.81717 0.63036 -5.96046e-05
1.94217 0.63036 -5.96046e-05
1.61683 0.69286 0.22793
1.62967 0.56786 -5.96046e-05
1.55433 0.63036 0.22793
1.69217 0.63036 -5.96046e-05
1.61683 0.94286 0.22793
1.61683 0.81786 0.22793
1.56717 0.88036 -5.96046e-05
1.67933 0.88036 0.22793
1.36683 0.69286 0.22793
1.37967 0.56786 -5.96046e-05
1.30433 0.63036 0.22793
1.42933 0.63036 0.22793
1.11683 0.69286 0.22793
1.12967 0.56786 -5.96046e-05
1.05433 0.63036 0.22793
1.17933 0.63036 0.22793
1.12967 0.94286 -5.96046e-05
1.11683 0.81786 0.22793
1.06717 0.88036 -5.96046e-05
1.19217 0.88036 -5.96046e-05
1.36683 0.19286 0.22793
1.37967 0.0678601 -5.96046e-05
1.31717 0.13036 -5.96046e-05
1.44217 0.13036 -5.96046e-05
1.11683 0.19286 0.22793
1.12967 0.0678601 -5.96046e-05
1.06717 0.13036 -5.96046e-05
1.19217 0.13036 -5.96046e-05
1.12967 0.44286 -5.96046e-05
1.11683 0.31786 0.175004
1.05433 0.38036 0.175004
1.17933 0.38036 0.175004
1.87967 0.19286 -5.96046e-05
1.87967 0.0678601 -5.96046e-05
1.81717 0.13036 -5.96046e-05
1.94217 0.13036 -5.96046e-05
1.61683 0.19286 0.22793
1.62967 0.0678601 -5.96046e-05
1.56717 0.13036 -5.96046e-05
1.69217 0.13036 -5.96046e-05
1.62967 0.44286 -5.96046e-05
1.61683 0.31786 0.175004
1.55433 0.38036 0.22793
1.67933 0.38036 0.22793
0.366834 0.69286 0.22793
0.366834 0.56786 0.22793
0.304334 0.63036 0.175004
0.442175 0.63036 -5.96046e-05
0.116834 0.69286 0.22793
0.116834 0.56786 0.22793
0.0671749 0.63036 -5.96046e-05
0.179334 0.63036 0.175004
0.116834 0.94286 0.22793
0.116834 0.81786 0.22793
0.0671749 0.88036 -5.96046e-05
0.179334 0.88036 0.175004
0.366834 0.19286 0.22793
0.379675 0.0678601 -5.96046e-05
0.317175 0.13036 -5.96046e-05
0.442175 0.13036 -5.96046e-05
0.129675 0.19286 -5.96046e-05
0.129675 0.0678601 -5.96046e-05
0.0671749 0.13036 -5.96046e-05
0.192175 0.13036 -5.96046e-05
0.116834 0.44286 0.22793
0.129675 0.31786 -5.96046e-05
0.0671749 0.38036 -5.96046e-05
0.179334 0.38036 0.175004
0.866834 0.19286 0.22793
0.879675 0.0678601 -5.96046e-05
0.817175 0.13036 -5.96046e-05
0.942175 0.13036 -5.96046e-05
0.616834 0.19286 0.22793
0.629675 0.0678601 -5.96046e-05
0.567175 0.13036 -5.96046e-05
0.692175 0.13036 -5.96046e-05
0.629675 0.44286 -5.96046e-05
0.616834 0.31786 0.175004
0.554334 0.38036 0.175004
0.679334 0.38036 0.175004
0.366834 1.69286 0.22793
0.366834 1.56786 0.22793
0.304334 1.63036 0.22793
0.442175 1.63036 -5.96046e-05
0.116834 1.69286 0.22793
0.116834 1.56786 0.22793
0.0671749 1.63036 -5.96046e-05
0.179334 1.63036 0.22793
0.129675 1.94286 -5.96046e-05
0.116834 1.81786 0.22793
0.0671749 1.88036 -5.96046e-05
0.179334 1.88036 0.22793
0.366834 1.19286 0.22793
0.366834 1.06786 0.22793
0.304334 1.13036 0.175004
0.442175 1.13036 -5.96046e-05
0.116834 1.19286 0.22793
0.116834 1.06786 0.22793
0.0671749 1.13036 -5.96046e-05
0.179334 1.13036 0.175004
0.116834 1.44286 0.22793
0.116834 1.31786 0.22793
0.0671749 1.38036 -5.96046e-05
0.179334 1.38036 0.175004
0.879675 1.19286 -5.96046e-05
0.879675 1.06786 -5.96046e-05
0.817175 1.13036 -5.96046e-05
0.942175 1.13036 -5.96046e-05
0.629675 1.06786 -5.96046e-05
0.692175 1.13036 -5.96046e-05
0.629675 1.44286 -5.96046e-05
0.692175 1.38036 -5.96046e-05
1.36683 1.69286 0.22793
1.37967 1.56786 -5.96046e-05
1.30433 1.63036 0.22793
1.42933 1.63036 0.22793
1.11683 1.69286 0.22793
1.12967 1.56786 -5.96046e-05
1.05433 1.63036 0.22793
1.17933 1.63036 0.22793
1.12967 1.94286 -5.96046e-05
1.11683 1.81786 0.22793
1.06717 1.88036 -5.96046e-05
1.19217 1.88036 -5.96046e-05
1.36683 1.19286 0.22793
1.37967 1.06786 -5.96046e-05
1.31717 1.13036 -5.96046e-05
1.42933 1.13036 0.22793
1.11683 1.19286 0.22793
1.12967 1.06786 -5.96046e-05
1.06717 1.13036 -5.96046e-05
1.19217 1.13036 -5.96046e-05
1.12967 1.44286 -5.96046e-05
1.11683 1.31786 0.22793
1.05433 1.38036 0.22793
1.17933 1.38036 0.22793
1.87967 1.19286 -5.96046e-05
1.87967 1.06786 -5.96046e-05
1.81717 1.13036 -5.96046e-05
1.94217 1.13036 -5.96046e-05
1.61683 1.19286 0.22793
1.61683 1.06786 0.22793
1.55433 1.13036 0.22793
1.67933 1.13036 0.22793
1.62967 1.44286 -5.96046e-05
1.62967 1.31786 -5.96046e-05
1.56717 1.38036 -5.96046e-05
1.69217 1.38036 -5.96046e-05
1.87967 1.44286 -5.96046e-05
1.81717 1.38036 -5.96046e-05
1.94217 1.38036 -5.96046e-05
1.37967 1.44286 -5.96046e-05
1.36683 1.31786 0.22793
1.30433 1.38036 0.22793
1.44217 1.38036 -5.96046e-05
1.37967 1.94286 -5.96046e-05
1.36683 1.81786 0.22793
1.31717 1.88036 -5.96046e-05
1.44217 1.88036 -5.96046e-05
0.866834 1.44286 0.22793
0.866834 1.31786 0.22793
0.804334 1.38036 0.22793
0.929334 1.38036 0.22793
0.366834 1.44286 0.22793
0.366834 1.31786 0.22793
0.304334 1.38036 0.175004
0.442175 1.38036 -5.96046e-05
0.379675 1.94286 -5.96046e-05
0.379675 1.81786 -5.96046e-05
0.304334 1.88036 0.22793
0.442175 1.88036 -5.96046e-05
0.879675 0.44286 -5.96046e-05
0.866834 0.31786 0.175004
0.804334 0.38036 0.22793
0.929334 0.38036 0.22793
0.366834 0.44286 0.22793
0.366834 0.31786 0.175004
0.304334 0.38036 0.175004
0.429334 0.38036 0.175004
0.366834 0.94286 0.22793
0.366834 0.81786 0.22793
0.304334 0.88036 0.180305
0.442175 0.88036 -5.96046e-05
1.87967 0.44286 -5.96046e-05
1.87967 0.31786 -5.96046e-05
1.80433 0.38036 0.22793
1.94217 0.38036 -5.96046e-05
1.37967 0.44286 -5.96046e-05
1.36683 0.31786 0.175004
1.30433 0.38036 0.175004
1.42933 0.38036 0.22793
1.37967 0.94286 -5.96046e-05
1.36683 0.81786 0.22793
1.31717 0.88036 -5.96046e-05
1.44217 0.88036 -5.96046e-05
1.87967 0.94286 -5.96046e-05
1.87967 0.81786 -5.96046e-05
1.80433 0.88036 0.22793
1.94217 0.88036 -5.96046e-05
0.866834 0.94286 0.22793
0.929334 0.88036 0.22793
0.879675 1.94286 -5.96046e-05
0.879675 1.81786 -5.96046e-05
0.817175 1.88036 -5.96046e-05
0.942175 1.88036 -5.96046e-05
1.94217 1.81786 -5.96046e-05
1.81717 1.81786 -5.96046e-05
1.81717 1.94286 -5.96046e-05
0.942175 1.81786 -5.96046e-05
0.817175 1.81786 -5.96046e-05
0.817175 1.94286 -5.96046e-05
0.929334 0.81786 0.22793
0.804334 0.94286 0.22793
1.94217 0.81786 -5.96046e-05
1.80433 0.81786 0.22793
1.80433 0.94286 0.22793
1.42933 0.81786 0.22793
1.31717 0.81786 -5.96046e-05
1.31717 0.94286 -5.96046e-05
1.42933 0.31786 0.175004
1.30433 0.31786 0.175004
1.31717 0.44286 -5.96046e-05
1.94217 0.31786 -5.96046e-05
1.80433 0.31786 0.22793
1.81717 0.44286 -5.96046e-05
0.442175 0.81786 -5.96046e-05
0.304334 0.81786 0.180305
0.304334 0.94286 0.180305
0.429334 0.31786 0.175004
0.304334 0.31786 0.175004
0.304334 0.44286 0.175004
0.929334 0.31786 0.175004
0.804334 0.31786 0.175004
0.817175 0.44286 -5.96046e-05
0.442175 1.81786 -5.96046e-05
0.304334 1.81786 0.22793
0.317175 1.94286 -5.96046e-05
0.442175 1.31786 -5.96046e-05
0.304334 1.31786 0.175004
0.304334 1.44286 0.175004
0.929334 1.31786 0.22793
0.817175 1.31786 -5.96046e-05
0.804334 1.44286 0.22793
1.44217 1.81786 -5.96046e-05
1.30433 1.81786 0.22793
1.31717 1.94286 -5.96046e-05
1.42933 1.31786 0.22793
1.30433 1.31786 0.22793
1.31717 1.44286 -5.96046e-05
1.81717 1.44286 -5.96046e-05
1.69217 1.31786 -5.96046e-05
1.55433 1.31786 0.22793
1.56717 1.44286 -5.96046e-05
1.67933 1.06786 0.22793
1.55433 1.06786 0.22793
1.55433 1.19286 0.22793
1.94217 1.06786 -5.96046e-05
1.80433 1.06786 0.22793
1.81717 1.19286 -5.96046e-05
1.17933 1.31786 0.22793
1.05433 1.31786 0.22793
1.05433 1.44286 0.22793
1.19217 1.06786 -5.96046e-05
1.06717 1.06786 -5.96046e-05
1.05433 1.19286 0.22793
1.44217 1.06786 -5.96046e-05
1.31717 1.06786 -5.96046e-05
1.30433 1.19286 0.22793
1.17933 1.81786 0.22793
1.05433 1.81786 0.22793
1.06717 1.94286 -5.96046e-05
1.19217 1.56786 -5.96046e-05
1.06717 1.56786 -5.96046e-05
1.05433 1.69286 0.22793
1.42933 1.56786 0.22793
1.31717 1.56786 -5.96046e-05
1.30433 1.69286 0.22793
0.692175 1.31786 -5.96046e-05
0.692175 1.06786 -5.96046e-05
0.567175 1.06786 -5.96046e-05
0.942175 1.06786 -5.96046e-05
0.817175 1.06786 -5.96046e-05
0.817175 1.19286 -5.96046e-05
0.179334 1.31786 0.175004
0.0671749 1.31786 -5.96046e-05
0.0671749 1.44286 -5.96046e-05
0.179334 1.06786 0.175004
0.0671749 1.06786 -5.96046e-05
0.0671749 1.19286 -5.96046e-05
0.442175 1.06786 -5.96046e-05
0.304334 1.06786 0.175004
0.304334 1.19286 0.175004
0.179334 1.81786 0.22793
0.0671749 1.81786 -5.96046e-05
0.0671749 1.94286 -5.96046e-05
0.179334 1.56786 0.175004
0.0671749 1.56786 -5.96046e-05
0.0671749 1.69286 -5.96046e-05
0.442175 1.56786 -5.96046e-05
0.304334 1.56786 0.175004
0.304334 1.69286 0.22793
0.679334 0.31786 0.175004
0.554334 0.31786 0.175004
0.567175 0.44286 -5.96046e-05
0.692175 0.0678601 -5.96046e-05
0.567175 0.0678601 -5.96046e-05
0.554334 0.19286 0.22793
0.942175 0.0678601 -5.96046e-05
0.817175 0.0678601 -5.96046e-05
0.804334 0.19286 0.22793
0.179334 0.31786 0.22793
0.0671749 0.31786 -5.96046e-05
0.0671749 0.44286 -5.96046e-05
0.192175 0.0678601 -5.96046e-05
0.0671749 0.0678601 -5.96046e-05
0.0671749 0.19286 -5.96046e-05
0.442175 0.0678601 -5.96046e-05
0.317175 0.0678601 -5.96046e-05
0.304334 0.19286 0.22793
0.179334 0.81786 0.175004
0.0671749 0.81786 -5.96046e-05
0.0671749 0.94286 -5.96046e-05
0.179334 0.56786 0.175004
0.0671749 0.56786 -5.96046e-05
0.0671749 0.69286 -5.96046e-05
0.442175 0.56786 -5.96046e-05
0.304334 0.56786 0.175004
0.304334 0.69286 0.175004
1.67933 0.31786 0.175004
1.55433 0.31786 0.175004
1.56717 0.44286 -5.96046e-05
1.69217 0.0678601 -5.96046e-05
1.56717 0.0678601 -5.96046e-05
1.55433 0.19286 0.22793
1.94217 0.0678601 -5.96046e-05
1.81717 0.0678601 -5.96046e-05
1.81717 0.19286 -5.96046e-05
1.17933 0.31786 0.175004
1.05433 0.31786 0.175004
1.06717 0.44286 -5.96046e-05
1.19217 0.0678601 -5.96046e-05
1.06717 0.0678601 -5.96046e-05
1.05433 0.19286 0.22793
1.44217 0.0678601 -5.96046e-05
1.31717 0.0678601 -5.96046e-05
1.30433 0.19286 0.22793
1.19217 0.81786 -5.96046e-05
1.05433 0.81786 0.22793
1.06717 0.94286 -5.96046e-05
1.19217 0.56786 -5.96046e-05
1.06717 0.56786 -5.96046e-05
1.05433 0.69286 0.22793
1.44217 0.56786 -5.96046e-05
1.31717 0.56786 -5.96046e-05
1.30433 0.69286 0.22793
1.67933 0.81786 0.22793
1.55433 0.81786 0.22793
1.56717 0.94286 -5.96046e-05
1.69217 0.56786 -5.96046e-05
1.56717 0.56786 -5.96046e-05
1.55433 0.69286 0.22793
1.94217 0.56786 -5.96046e-05
1.81717 0.56786 -5.96046e-05
1.81717 0.69286 -5.96046e-05
0.567175 0.81786 -5.96046e-05
0.567175 0.94286 -5.96046e-05
0.692175 0.56786 -5.96046e-05
0.567175 0.56786 -5.96046e-05
0.567175 0.69286 -5.96046e-05
0.942175 0.56786 -5.96046e-05
0.817175 0.56786 -5.96046e-05
0.804334 0.69286 0.22793
0.692175 1.81786 -5.96046e-05
0.567175 1.94286 -5.96046e-05
0.692175 1.56786 -5.96046e-05
0.929334 1.56786 0.22793
0.804334 1.56786 0.22793
0.804334 1.69286 0.22793
1.69217 1.81786 -5.96046e-05
1.56717 1.81786 -5.96046e-05
1.56717 1.94286 -5.96046e-05
1.67933 1.56786 0.22793
1.55433 1.56786 0.22793
1.55433 1.69286 0.22793
1.94217 1.56786 -5.96046e-05
1.80433 1.56786 0.22793
1.80433 1.69286 0.22793
1.94217 1.69286 -5.96046e-05
1.67933 1.69286 0.22793
1.69217 1.94286 -5.96046e-05
0.929334 1.69286 0.22793
0.692175 1.69286 -5.96046e-05
0.692175 1.94286 -5.96046e-05
0.929334 0.69286 0.22793
0.679334 0.69286 0.22793
0.679334 0.94286 0.22793
1.94217 0.69286 -5.96046e-05
1.67933 0.69286 0.22793
1.67933 0.94286 0.22793
1.42933 0.69286 0.22793
1.17933 0.69286 0.22793
1.19217 0.94286 -5.96046e-05
1.42933 0.19286 0.22793
1.17933 0.19286 0.22793
1.19217 0.44286 -5.96046e-05
1.94217 0.19286 -5.96046e-05
1.67933 0.19286 0.22793
1.69217 0.44286 -5.96046e-05
0.442175 0.69286 -5.96046e-05
0.179334 0.69286 0.175004
0.179334 0.94286 0.175004
0.429334 0.19286 0.22793
0.179334 0.19286 0.22793
0.179334 0.44286 0.175004
0.929334 0.19286 0.22793
0.679334 0.19286 0.22793
0.692175 0.44286 -5.96046e-05
0.442175 1.69286 -5.96046e-05
0.179334 1.69286 0.22793
0.192175 1.94286 -5.96046e-05
0.442175 1.19286 -5.96046e-05
0.179334 1.19286 0.175004
0.179334 1.44286 0.175004
0.942175 1.19286 -5.96046e-05
0.692175 1.19286 -5.96046e-05
0.692175 1.44286 -5.96046e-05
1.42933 1.69286 0.22793
1.17933 1.69286 0.22793
1.19217 1.94286 -5.96046e-05
1.42933 1.19286 0.22793
1.17933 1.19286 0.22793
1.19217 1.44286 -5.96046e-05
1.94217 1.19286 -5.96046e-05
1.67933 1.19286 0.22793
1.69217 1.44286 -5.96046e-05
1.94217 1.44286 -5.96046e-05
1.44217 1.44286 -5.96046e-05
1.44217 1.94286 -5.96046e-05
0.929334 1.44286 0.22793
0.442175 1.44286 -5.96046e-05
0.442175 1.94286 -5.96046e-05
0.942175 0.44286 -5.96046e-05
0.429334 0.44286 0.22793
0.442175 0.94286 -5.96046e-05
1.94217 0.44286 -5.96046e-05
1.44217 0.44286 -5.96046e-05
1.44217 0.94286 -5.96046e-05
1.94217 0.94286 -5.96046e-05
0.929334 0.94286 0.22793
0.942175 1.94286 -5.96046e-05
1.94217 1.94286 -5.96046e-05
